<svg width="242" height="68" viewBox="0 0 242 68" fill="none" xmlns="http://www.w3.org/2000/svg">
<g filter="url(#filter0_d_1475_3459)">
<path fill-rule="evenodd" clip-rule="evenodd" d="M27.232 42.9276C36.7489 42.9276 44.464 35.2126 44.464 25.6956C44.464 16.1786 36.7489 8.46362 27.232 8.46362C17.715 8.46362 10 16.1786 10 25.6956C10 35.2126 17.715 42.9276 27.232 42.9276ZM29.883 39.7463C37.9358 39.7463 44.4639 33.4556 44.464 25.6956C44.4639 17.9356 37.9358 11.6449 29.883 11.6449C21.8302 11.6449 15.3021 17.9356 15.3021 25.6956C15.3021 33.4556 21.8302 39.7463 29.883 39.7463Z" fill="#0D706D"/>
<path fill-rule="evenodd" clip-rule="evenodd" d="M31.7388 13.2356C24.7109 13.2356 19.0137 18.6955 19.0137 25.4305C19.0137 25.5265 19.0148 25.6223 19.0171 25.7177C19.164 20.5591 23.9726 16.4169 29.8831 16.4169C35.8861 16.4169 40.7525 20.6898 40.7525 25.9607C40.7525 31.2317 35.8861 35.5046 29.8831 35.5046C25.0275 35.5046 20.9155 32.709 19.521 28.8509C21.0639 33.9211 25.9499 37.6255 31.7388 37.6255C38.7667 37.6255 44.464 32.1656 44.464 25.4305C44.464 18.6955 38.7667 13.2356 31.7388 13.2356Z" fill="#0D706D"/>
<path fill-rule="evenodd" clip-rule="evenodd" d="M39.0005 55.5364C48.5175 55.5364 56.2325 47.8213 56.2325 38.3044C56.2325 28.7874 48.5175 21.0724 39.0005 21.0724C29.4836 21.0724 21.7686 28.7874 21.7686 38.3044C21.7686 47.8213 29.4836 55.5364 39.0005 55.5364ZM41.6516 52.355C49.7044 52.355 56.2325 46.0643 56.2325 38.3044C56.2325 30.5444 49.7044 24.2537 41.6516 24.2537C33.5988 24.2537 27.0707 30.5444 27.0707 38.3044C27.0707 46.0643 33.5988 52.355 41.6516 52.355Z" fill="#0D706D"/>
<path fill-rule="evenodd" clip-rule="evenodd" d="M43.5074 25.8444C36.4795 25.8444 30.7822 31.3042 30.7822 38.0393C30.7822 38.1353 30.7834 38.231 30.7857 38.3265C30.9326 33.1679 35.7412 29.0257 41.6516 29.0257C47.6546 29.0257 52.521 33.2986 52.521 38.5695C52.521 43.8405 47.6546 48.1134 41.6516 48.1134C36.7961 48.1134 32.6842 45.3179 31.2896 41.4599C32.8326 46.53 37.7186 50.2342 43.5074 50.2342C50.5353 50.2342 56.2325 44.7744 56.2325 38.0393C56.2325 31.3042 50.5353 25.8444 43.5074 25.8444Z" fill="#0D706D"/>
<path d="M74.3604 17.668H72.4084V15.54H79.1764V17.668H77.2404V28.5H74.3604V17.668ZM86.1233 15.54H89.3873L91.8033 28.5H89.1633L88.7313 25.764H86.8273L86.3793 28.5H83.6753L86.1233 15.54ZM88.4593 24.052L87.7713 18.996L87.0833 24.052H88.4593ZM97.6878 15.54H100.552V28.5H97.6878V15.54ZM106.516 15.54H108.948L109.716 23.092L110.692 15.556H112.596L113.62 23.044L114.404 15.54H116.804L115.252 28.5H112.756L111.652 20.676L110.612 28.5H108.084L106.516 15.54ZM124.241 15.54H127.505L129.921 28.5H127.281L126.849 25.764H124.945L124.497 28.5H121.793L124.241 15.54ZM126.577 24.052L125.889 18.996L125.201 24.052H126.577ZM135.789 15.54H137.805L140.461 21.78V15.54H142.829V28.5H140.893L138.237 21.78V28.5H135.789V15.54ZM157.972 15.54H161.348C162.19 15.54 162.905 15.6307 163.492 15.812C164.089 15.9827 164.569 16.3187 164.932 16.82C165.294 17.3213 165.476 18.0253 165.476 18.932C165.476 19.7 165.31 20.2973 164.98 20.724C164.649 21.1507 164.18 21.4227 163.572 21.54C164.318 21.636 164.889 21.9507 165.284 22.484C165.678 23.0173 165.876 23.7427 165.876 24.66C165.876 27.22 164.569 28.5 161.956 28.5H157.972V15.54ZM161.396 20.724C162.004 20.724 162.414 20.5853 162.628 20.308C162.852 20.0307 162.964 19.5987 162.964 19.012C162.964 18.5 162.825 18.116 162.548 17.86C162.27 17.5933 161.865 17.46 161.332 17.46H160.836V20.724H161.396ZM161.444 26.5C162.052 26.5 162.478 26.3507 162.724 26.052C162.98 25.7427 163.108 25.2627 163.108 24.612C163.108 23.876 162.98 23.3587 162.724 23.06C162.478 22.7613 162.046 22.612 161.428 22.612H160.836V26.5H161.444ZM171.954 15.54H174.818V28.5H171.954V15.54ZM181.311 15.54H184.175V20.836L186.351 15.54H189.151L186.751 21.396L189.263 28.5H186.351L184.479 22.772L184.175 23.284V28.5H181.311V15.54ZM194.949 15.54H200.773V17.492H197.813V20.708H200.069V22.692H197.813V26.564H200.805V28.5H194.949V15.54Z" fill="#333333"/>
<path d="M83.5124 45.644V48.412H76.8564V45.644H83.5124ZM74.9044 50.876H76.8564V50.236H83.5124V50.86H85.5604V43.836H74.9044V50.876ZM81.8644 38.668C82.3604 39.1 82.8884 39.58 83.4004 40.092C81.5604 40.172 79.7044 40.252 77.9764 40.316C78.7444 39.148 79.5444 37.804 80.2164 36.54L78.0244 35.836C77.4804 37.244 76.5684 39.004 75.6724 40.396C74.7764 40.412 73.9444 40.444 73.2084 40.46L73.3204 42.38C76.2964 42.268 80.7604 42.092 84.9844 41.868C85.4164 42.396 85.7684 42.892 86.0084 43.324L87.6564 42.06C86.8404 40.684 84.9364 38.844 83.3524 37.548L81.8644 38.668ZM103.72 36.22H100.936V37.132H103.72V36.22ZM96.9364 37.756C96.4564 37.244 95.4164 36.572 94.6324 36.14L93.5444 37.436C94.3444 37.916 95.3364 38.652 95.7844 39.18L96.9364 37.756ZM96.6324 41.836C96.1044 41.34 95.0644 40.716 94.2484 40.332L93.2084 41.66C94.0084 42.092 95.0484 42.796 95.5124 43.292L96.6324 41.836ZM95.2564 50.7C95.8964 49.148 96.5524 47.292 97.0644 45.58L95.5604 44.62C94.9684 46.492 94.1524 48.508 93.5764 49.756L95.2564 50.7ZM102.712 43.02H101.912V42.316H102.712V43.02ZM98.1684 44.012H99.3684V40.828L99.8644 40.78C99.8964 40.94 99.9124 41.084 99.9284 41.212L100.792 40.892C100.728 40.396 100.504 39.628 100.232 39.052L99.4324 39.34C99.4804 39.468 99.5284 39.612 99.5764 39.756L98.8884 39.772C99.3844 39.212 99.8964 38.556 100.36 37.948V38.524H104.184V38.348C104.552 38.668 104.904 39.052 105.144 39.372C105 39.532 104.856 39.708 104.728 39.852L103.976 39.868L104.088 41.02L105.464 40.94V41.532L104.424 41.292C104.296 41.884 104.12 42.524 103.864 43.052V41.468H100.808V43.868H103.864V43.34C104.152 43.468 104.536 43.676 104.728 43.82C105 43.308 105.288 42.54 105.464 41.82V44.012H106.68V40.876L107.304 40.828C107.336 40.972 107.368 41.1 107.384 41.212L108.344 40.796C108.232 40.268 107.928 39.484 107.608 38.908L106.696 39.276C106.776 39.436 106.856 39.612 106.936 39.788L106.056 39.804C106.632 39.18 107.24 38.444 107.768 37.788L106.712 37.196C106.504 37.564 106.216 37.98 105.896 38.412C105.8 38.3 105.688 38.172 105.56 38.06C105.896 37.596 106.264 37.004 106.632 36.46L105.544 35.932C105.368 36.332 105.08 36.908 104.808 37.404L104.6 37.244L104.184 37.804V37.532H100.36V37.804L99.4004 37.26C99.2244 37.58 98.9844 37.932 98.7284 38.316C98.6324 38.204 98.5044 38.108 98.3924 37.996C98.6964 37.532 99.0484 36.972 99.3844 36.428L98.3124 35.884C98.1364 36.316 97.8644 36.892 97.5924 37.372C97.5124 37.324 97.4164 37.26 97.3364 37.212L96.7444 38.14C97.1764 38.46 97.6564 38.892 98.0084 39.276C97.8644 39.468 97.7044 39.66 97.5604 39.836L96.5844 39.868L96.7124 41.02C97.1604 40.988 97.6564 40.956 98.1684 40.908V41.532L97.1124 41.292C96.9684 42.012 96.7444 42.78 96.3764 43.356C96.6644 43.468 97.1444 43.708 97.3844 43.852C97.6884 43.324 97.9764 42.54 98.1684 41.82V44.012ZM106.728 41.58C107 42.236 107.288 43.084 107.384 43.644L108.392 43.308C108.264 42.764 107.96 41.932 107.688 41.292L106.728 41.58ZM100.824 41.036H103.864V40.172H100.824V41.036ZM103.864 38.94H100.824V39.804H103.864V38.94ZM100.76 43.036C100.68 42.588 100.504 41.884 100.328 41.356L99.4164 41.564C99.5764 42.124 99.7364 42.844 99.8004 43.308L100.76 43.036ZM99.6404 47.436L99.7684 46.94H106.856V44.284H97.7844V45.356H105.096V45.852H98.2644C98.0724 46.844 97.7684 48.028 97.4804 48.844L99.1924 49.068C99.2404 48.924 99.2884 48.764 99.3364 48.604H105.64C105.496 49.052 105.352 49.308 105.176 49.436C105.016 49.548 104.824 49.564 104.504 49.564C104.104 49.564 103.048 49.548 102.088 49.452C102.36 49.852 102.568 50.428 102.6 50.844C103.592 50.876 104.568 50.892 105.08 50.876C105.72 50.844 106.168 50.764 106.568 50.46C107 50.108 107.288 49.404 107.544 48.124C107.608 47.9 107.64 47.436 107.64 47.436H99.6404ZM117.608 48.316V46.652H125.208V48.316H117.608ZM125.208 43.244V44.892H117.608V43.244H125.208ZM125.208 39.836V41.484H117.608V39.836H125.208ZM121.752 38.012C122.008 37.436 122.264 36.812 122.504 36.172L120.2 35.916C120.12 36.556 119.944 37.324 119.768 38.012H115.672V50.876H117.608V50.076H125.208V50.86H127.24V38.012H121.752ZM148.84 36.86H141.064V38.668H148.84V36.86ZM137.992 35.948C137.224 37.068 135.704 38.508 134.376 39.356C134.712 39.724 135.192 40.492 135.432 40.908C136.952 39.852 138.68 38.204 139.832 36.7L137.992 35.948ZM138.6 39.404C137.576 41.212 135.832 43.068 134.2 44.188C134.584 44.588 135.224 45.452 135.496 45.836C135.928 45.484 136.36 45.084 136.808 44.652V50.908H138.712V42.556C139.352 41.756 139.944 40.924 140.424 40.108L138.6 39.404ZM149.24 41.26H140.392V43.068H145.112V48.636C145.112 48.876 145 48.94 144.712 48.94C144.424 48.956 143.368 48.956 142.456 48.908C142.712 49.468 142.952 50.284 143.032 50.844C144.456 50.844 145.48 50.812 146.152 50.524C146.856 50.236 147.048 49.708 147.048 48.684V43.068H149.24V41.26ZM158.648 44.652V43.676H161.432V44.652H158.648ZM158.648 41.276H161.432V42.252H158.648V41.276ZM166.184 41.276V42.252H163.384V41.276H166.184ZM166.184 44.652H163.384V43.676H166.184V44.652ZM169.768 47.036H163.384V46.172H168.104V39.756H163.384V38.988H169.304V37.26H163.384V35.964H161.432V37.26H155.624V38.988H161.432V39.756H156.824V46.172H161.432V47.036H155.24V48.748H161.432V50.908H163.384V48.748H169.768V47.036ZM180.552 37.34C179.752 36.956 178.232 36.444 177.176 36.188L176.344 37.484C177.448 37.804 178.952 38.38 179.688 38.78L180.552 37.34ZM179.64 46.364H186.568V47.068H179.64V46.364ZM179.64 44.604H186.568V45.292H179.64V44.604ZM179.64 42.844H186.568V43.532H179.64V42.844ZM182.232 41.708C183.704 41.292 184.6 40.732 185.16 39.98C185.64 40.668 186.376 41.26 187.608 41.708H182.232ZM188.504 48.204V41.98C188.824 42.06 189.176 42.124 189.56 42.188C189.736 41.724 190.152 40.988 190.504 40.636C187.272 40.252 186.36 39.372 186.024 38.348H187.8C187.592 38.684 187.368 38.988 187.176 39.228L188.648 39.692C189.176 39.1 189.752 38.14 190.168 37.276L188.904 36.956L188.616 37.004H183.896C184.056 36.748 184.184 36.492 184.312 36.22L182.632 35.948C182.216 36.876 181.432 37.932 180.28 38.732C180.712 38.908 181.368 39.292 181.704 39.628C182.2 39.228 182.616 38.796 182.984 38.348H184.136C183.784 39.484 182.936 40.172 180.392 40.588L180.232 39.148C178.536 39.548 176.824 39.948 175.64 40.172L176.344 41.836C177.544 41.5 179.032 41.068 180.408 40.668L180.392 40.604C180.648 40.86 180.952 41.324 181.144 41.708H177.8V48.204H180.152C179.048 48.748 177.304 49.26 175.752 49.548C176.152 49.884 176.824 50.572 177.16 50.94C178.776 50.492 180.824 49.708 182.152 48.844L180.696 48.204H185.368L183.928 49.036C185.544 49.644 187.176 50.396 188.088 50.924L190.296 50.076C189.208 49.548 187.368 48.78 185.736 48.204H188.504ZM201.624 36.444H196.92V37.884H201.624V36.444ZM202.2 38.588H196.12V40.092H202.2V38.588ZM201.672 40.812H196.872V42.268H201.672V40.812ZM196.872 44.428H201.672V43.004H196.872V44.428ZM200.072 48.556H198.424V46.716H200.072V48.556ZM202.328 36.572V38.38H203.896V41.788V41.932H202.152V43.708H203.832C203.672 45.612 203.176 47.58 201.688 49.212V45.212H196.824V50.668H198.424V50.044H201.688V49.788C202.088 50.108 202.536 50.588 202.776 50.908C204.856 48.844 205.48 46.22 205.656 43.708H207.208V41.932H205.704V41.804V38.38H207.528C207.544 44.492 207.592 50.108 209.304 50.764C210.344 51.196 211.176 50.652 211.432 48.172C211.144 47.884 210.68 47.116 210.392 46.62C210.344 47.724 210.248 48.828 210.136 48.796C209.368 48.604 209.304 42.012 209.464 36.572H202.328ZM217.224 45.308C217.096 46.652 216.872 48.076 216.408 49.02C216.792 49.164 217.48 49.468 217.8 49.692C218.248 48.668 218.6 47.084 218.744 45.564L217.224 45.308ZM227.048 47.036C226.84 47.036 226.808 46.908 226.808 46.508V45.1H229.128V43.66H227.704V42.412H229.08V40.972H228.312C228.568 40.428 228.872 39.692 229.208 39.004L227.768 38.588C227.656 39.212 227.384 40.156 227.144 40.748L227.784 40.972H225.8L226.568 40.7C226.504 40.156 226.248 39.292 225.928 38.668L224.808 39.068C225.048 39.644 225.256 40.428 225.336 40.972H224.76V42.412H226.104V43.66H224.712V45.1H225.224V46.492C225.224 47.996 225.544 48.524 227.048 48.524H228.12C228.488 48.524 228.824 48.508 229.064 48.412C229.016 48.044 228.968 47.324 228.936 46.94C228.712 47.004 228.344 47.036 228.12 47.036H227.048ZM231.24 36.636H222.648V43.196C222.376 42.492 222.008 41.74 221.64 41.1L220.296 41.66C220.472 41.98 220.648 42.332 220.808 42.684L219.416 42.764C220.424 41.484 221.512 39.9 222.392 38.556L220.84 37.836C220.472 38.62 219.96 39.532 219.4 40.428C219.256 40.236 219.08 40.012 218.888 39.804C219.48 38.908 220.136 37.644 220.696 36.54L219.048 35.964C218.792 36.78 218.344 37.852 217.896 38.732C217.768 38.62 217.64 38.508 217.528 38.396L216.6 39.676C217.24 40.332 217.976 41.196 218.424 41.916C218.184 42.252 217.944 42.572 217.704 42.86L216.552 42.924L216.744 44.572L218.968 44.396V50.892H220.6V44.268L221.4 44.204C221.496 44.556 221.592 44.876 221.64 45.148L222.648 44.684V46.908C222.488 46.348 222.296 45.74 222.072 45.244L220.744 45.644C221.096 46.556 221.4 47.74 221.48 48.524L222.648 48.14V50.924H224.344V38.284H229.512V49.004C229.512 49.228 229.432 49.308 229.208 49.324C228.984 49.324 228.264 49.324 227.624 49.292C227.848 49.724 228.072 50.444 228.12 50.892C229.24 50.908 229.992 50.86 230.536 50.588C231.064 50.316 231.24 49.884 231.24 49.004V36.636Z" fill="#333333"/>
</g>
<defs>
<filter id="filter0_d_1475_3459" x="0" y="0.463623" width="242.232" height="67.0728" filterUnits="userSpaceOnUse" color-interpolation-filters="sRGB">
<feFlood flood-opacity="0" result="BackgroundImageFix"/>
<feColorMatrix in="SourceAlpha" type="matrix" values="0 0 0 0 0 0 0 0 0 0 0 0 0 0 0 0 0 0 127 0" result="hardAlpha"/>
<feOffset dy="2"/>
<feGaussianBlur stdDeviation="5"/>
<feColorMatrix type="matrix" values="0 0 0 0 0 0 0 0 0 0 0 0 0 0 0 0 0 0 0.25 0"/>
<feBlend mode="normal" in2="BackgroundImageFix" result="effect1_dropShadow_1475_3459"/>
<feBlend mode="normal" in="SourceGraphic" in2="effect1_dropShadow_1475_3459" result="shape"/>
</filter>
</defs>
</svg>
