<svg width="30" height="30" viewBox="0 0 30 30" fill="none" xmlns="http://www.w3.org/2000/svg">
<path d="M13.6264 8.2843L13.6282 8.28613L14.4606 9.11669L14.9916 9.64644L15.5213 9.11551L16.3391 8.29586C16.3394 8.29559 16.3397 8.29532 16.3399 8.29505C16.8251 7.8122 17.4006 7.42964 18.0336 7.1692C18.667 6.90862 19.3455 6.77542 20.0304 6.7772C20.7153 6.77899 21.3931 6.91573 22.0251 7.17961C22.6571 7.44349 23.2309 7.82934 23.7138 8.31511L23.7165 8.31785C24.6948 9.29198 25.2464 10.6147 25.25 11.9953C25.2536 13.3754 24.7093 14.7005 23.7367 15.6797C23.7364 15.68 23.7361 15.6803 23.7357 15.6806L15.1514 24.2594L15.1513 24.2595C15.1201 24.2908 15.0777 24.3083 15.0335 24.3083C14.9893 24.3083 14.947 24.2908 14.9157 24.2597C14.9157 24.2596 14.9156 24.2596 14.9156 24.2596C14.9156 24.2595 14.9156 24.2595 14.9156 24.2595L6.2856 15.6277L6.28429 15.6264C5.30549 14.6522 4.75362 13.3292 4.75002 11.9482C4.74641 10.5679 5.2908 9.2427 6.26355 8.26355C7.2427 7.2908 8.56793 6.74641 9.94819 6.75002C11.3292 6.75362 12.6522 7.30549 13.6264 8.2843Z" stroke="#769763" stroke-width="1.5"/>
</svg>
