<svg width="60" height="60" viewBox="0 0 60 60" fill="none" xmlns="http://www.w3.org/2000/svg">
<path d="M19.332 16.464C19.38 16.248 19.428 16.02 19.5 15.804C20.604 12.36 24.3 10.464 27.744 11.58C31.188 12.696 33.084 16.38 31.968 19.824C31.56 21.084 30.816 22.14 29.856 22.908" stroke="#769763" stroke-miterlimit="10" stroke-linecap="round" stroke-linejoin="round"/>
<path d="M22.944 16.464C23.604 15.096 25.2 14.376 26.688 14.856C28.32 15.384 29.208 17.136 28.692 18.756C28.572 19.116 28.392 19.44 28.176 19.728" stroke="#769763" stroke-miterlimit="10" stroke-linecap="round" stroke-linejoin="round"/>
<path d="M35.832 27.384L45.708 15.444L48.276 18.024L40.752 27.168" stroke="#769763" stroke-miterlimit="10" stroke-linecap="round" stroke-linejoin="round"/>
<path d="M31.164 27.408L44.412 11.268L46.992 13.836L35.88 27.408" stroke="#769763" stroke-miterlimit="10" stroke-linecap="round" stroke-linejoin="round"/>
<path d="M30.012 23.04L40.032 10.8L42.612 13.368L31.116 27.408" stroke="#769763" stroke-miterlimit="10" stroke-linecap="round" stroke-linejoin="round"/>
<path d="M40.848 27.072L46.284 20.652L48.864 23.232L45.492 27.072" stroke="#769763" stroke-miterlimit="10" stroke-linecap="round" stroke-linejoin="round"/>
<path d="M12.432 27.132C12.312 26.412 12.252 26.076 12.252 25.452C12.252 20.484 16.272 16.464 21.24 16.464C26.208 16.464 30.228 20.484 30.228 25.452C30.228 26.052 30.168 26.376 30.06 27.072" stroke="#769763" stroke-miterlimit="10" stroke-linecap="round" stroke-linejoin="round"/>
<path d="M15.984 27.384C15.768 26.784 15.648 26.136 15.648 25.464C15.648 22.38 18.156 19.872 21.24 19.872C24.324 19.872 26.832 22.38 26.832 25.464C26.832 26.16 26.7 26.82 26.472 27.432" stroke="#769763" stroke-miterlimit="10" stroke-linecap="round" stroke-linejoin="round"/>
<path d="M39.984 44.976H19.512C14.04 44.976 9.60001 35.772 9.60001 30.3V27.408H49.896V30.3C49.896 35.772 45.456 44.976 39.984 44.976Z" stroke="#769763" stroke-miterlimit="10" stroke-linecap="round" stroke-linejoin="round"/>
<path d="M40.308 44.976H19.188V48.684H40.308V44.976Z" stroke="#769763" stroke-miterlimit="10" stroke-linecap="round" stroke-linejoin="round"/>
<path d="M12.756 31.596H46.74" stroke="#769763" stroke-miterlimit="10" stroke-linecap="round" stroke-linejoin="round"/>
</svg>
