<svg width="60" height="60" viewBox="0 0 60 60" fill="none" xmlns="http://www.w3.org/2000/svg">
<path d="M36.384 50.196H22.596L19.2 19.332H39.78L36.384 50.196Z" stroke="#769763" stroke-miterlimit="10" stroke-linecap="round" stroke-linejoin="round"/>
<path d="M31.776 47.82L36.456 10.8H41.928" stroke="#769763" stroke-miterlimit="10" stroke-linecap="round" stroke-linejoin="round"/>
<path d="M19.788 24.66H39.096" stroke="#769763" stroke-miterlimit="10" stroke-linecap="round" stroke-linejoin="round"/>
<path d="M28.464 39.564C29.3985 39.564 30.156 38.8065 30.156 37.872C30.156 36.9375 29.3985 36.18 28.464 36.18C27.5296 36.18 26.772 36.9375 26.772 37.872C26.772 38.8065 27.5296 39.564 28.464 39.564Z" stroke="#769763" stroke-miterlimit="10" stroke-linecap="round" stroke-linejoin="round"/>
<path d="M26.076 32.964C27.322 32.964 28.332 31.954 28.332 30.708C28.332 29.462 27.322 28.452 26.076 28.452C24.83 28.452 23.82 29.462 23.82 30.708C23.82 31.954 24.83 32.964 26.076 32.964Z" stroke="#769763" stroke-miterlimit="10" stroke-linecap="round" stroke-linejoin="round"/>
</svg>
