<svg width="60" height="60" viewBox="0 0 60 60" fill="none" xmlns="http://www.w3.org/2000/svg">
<path d="M29.604 45.792C38.6637 45.792 46.008 38.4477 46.008 29.388C46.008 20.3283 38.6637 12.984 29.604 12.984C20.5443 12.984 13.2 20.3283 13.2 29.388C13.2 38.4477 20.5443 45.792 29.604 45.792Z" stroke="#769763" stroke-miterlimit="10" stroke-linecap="round" stroke-linejoin="round"/>
<path d="M29.604 45.792C38.6637 45.792 46.008 38.4477 46.008 29.388C46.008 20.3283 38.6637 12.984 29.604 12.984C20.5443 12.984 13.2 20.3283 13.2 29.388C13.2 38.4477 20.5443 45.792 29.604 45.792Z" stroke="#769763" stroke-miterlimit="10" stroke-linecap="round" stroke-linejoin="round"/>
<path d="M29.604 43.068C37.1593 43.068 43.284 36.9433 43.284 29.388C43.284 21.8327 37.1593 15.708 29.604 15.708C22.0487 15.708 15.924 21.8327 15.924 29.388C15.924 36.9433 22.0487 43.068 29.604 43.068Z" stroke="#769763" stroke-miterlimit="10" stroke-linecap="round" stroke-linejoin="round"/>
<path d="M30.6 20.16C32.352 20.868 32.448 24.372 30.816 27.972C29.184 31.572 24.684 33.204 24.684 33.204C24.684 33.204 22.836 28.992 24.468 25.392C26.1 21.792 28.848 19.452 30.6 20.16Z" stroke="#769763" stroke-miterlimit="10" stroke-linecap="round" stroke-linejoin="round"/>
<path d="M24.24 33.216L21.6 34.644C21.216 34.848 21.252 35.4 21.648 35.568L25.008 36.936C25.392 37.092 25.8 36.744 25.692 36.336L24.972 33.54C24.9 33.216 24.528 33.06 24.24 33.216Z" stroke="#769763" stroke-miterlimit="10" stroke-linecap="round" stroke-linejoin="round"/>
<path d="M40.08 10.8L29.604 48.684" stroke="#769763" stroke-miterlimit="10" stroke-linecap="round" stroke-linejoin="round"/>
<path d="M43.296 11.544L32.82 49.44" stroke="#769763" stroke-miterlimit="10" stroke-linecap="round" stroke-linejoin="round"/>
</svg>
