<svg width="19" height="20" viewBox="0 0 19 20" fill="none" xmlns="http://www.w3.org/2000/svg">
<path d="M18.7402 16.9283L15.0404 13.2285C14.8734 13.0615 14.6471 12.9688 14.4096 12.9688H13.8047C14.8289 11.6588 15.4375 10.0111 15.4375 8.21875C15.4375 3.95488 11.9826 0.5 7.71875 0.5C3.45488 0.5 0 3.95488 0 8.21875C0 12.4826 3.45488 15.9375 7.71875 15.9375C9.51113 15.9375 11.1588 15.3289 12.4688 14.3047V14.9096C12.4688 15.1471 12.5615 15.3734 12.7285 15.5404L16.4283 19.2402C16.7771 19.5891 17.3412 19.5891 17.6863 19.2402L18.7365 18.19C19.0854 17.8412 19.0854 17.2771 18.7402 16.9283ZM7.71875 12.9688C5.09512 12.9688 2.96875 10.8461 2.96875 8.21875C2.96875 5.59512 5.09141 3.46875 7.71875 3.46875C10.3424 3.46875 12.4688 5.59141 12.4688 8.21875C12.4688 10.8424 10.3461 12.9688 7.71875 12.9688Z" fill="#333333"/>
</svg>
