<svg width="14" height="14" viewBox="0 0 14 14" fill="none" xmlns="http://www.w3.org/2000/svg">
<path d="M12.9413 5.39333V1.52201C12.9413 1.32453 12.7816 1.16666 12.5847 1.16666H1.41313C1.21839 1.16666 1.0587 1.32453 1.0587 1.52201V5.39333C0.411225 5.93729 0 6.75543 0 7.67007V8.26448V8.81936V12.6513C0 12.7521 0.0808559 12.8333 0.179321 12.8333H1.57055C1.66904 12.8333 1.74998 12.7521 1.74998 12.6513V10.9514C1.74998 10.8526 1.83084 10.7716 1.9293 10.7716H12.0706C12.1691 10.7716 12.25 10.8527 12.25 10.9514V12.6513C12.25 12.7521 12.3309 12.8333 12.4293 12.8333H13.8206C13.9191 12.8333 14 12.7521 14 12.6513V8.81933V8.26448V7.67007C14.0001 6.75543 13.5887 5.93729 12.9413 5.39333ZM1.12099 6.68378C1.47282 6.02286 2.16722 5.57316 2.96629 5.57316H11.0338C11.8311 5.57316 12.5262 6.02275 12.8785 6.68357C13.0482 7.00166 12.82 7.38712 12.4603 7.38712H1.53949C1.17986 7.38712 0.951705 7.00185 1.12099 6.68378ZM11.1432 4.47646C11.1257 4.52916 11.0775 4.56645 11.0228 4.57297C9.68841 4.7199 8.97747 4.7199 7.64314 4.57297C7.58845 4.56645 7.54027 4.52916 7.52502 4.47646C7.27786 3.75483 7.27786 3.35569 7.52502 2.63179C7.54027 2.58134 7.58845 2.54408 7.64314 2.53753C8.97747 2.3906 9.68841 2.3906 11.0228 2.53753C11.0775 2.54405 11.1257 2.58134 11.1432 2.63179C11.3882 3.35566 11.3882 3.75483 11.1432 4.47646ZM6.47496 4.47646C6.45754 4.52916 6.41163 4.56645 6.35694 4.57297C5.02253 4.7199 4.31159 4.7199 2.97718 4.57297C2.92249 4.56645 2.87431 4.52916 2.85692 4.47646C2.61186 3.75483 2.61186 3.35569 2.85692 2.63179C2.87431 2.58134 2.92249 2.54408 2.97718 2.53753C4.31159 2.3906 5.02253 2.3906 6.35694 2.53753C6.41163 2.54405 6.45754 2.58134 6.47496 2.63179C6.72223 3.35566 6.72223 3.75483 6.47496 4.47646Z" fill="#1FB588"/>
</svg>
