<svg width="48" height="48" viewBox="0 0 48 48" fill="none" xmlns="http://www.w3.org/2000/svg">
<path d="M30.1875 14.2439C31.975 14.2439 33.4375 12.839 33.4375 11.122C33.4375 9.40488 31.975 8 30.1875 8C28.4 8 26.9375 9.40488 26.9375 11.122C26.9375 12.839 28.4 14.2439 30.1875 14.2439ZM13.125 24.3902C8.575 24.3902 5 27.8244 5 32.1951C5 36.5659 8.575 40 13.125 40C17.675 40 21.25 36.5659 21.25 32.1951C21.25 27.8244 17.675 24.3902 13.125 24.3902ZM13.125 37.6585C10.0375 37.6585 7.4375 35.161 7.4375 32.1951C7.4375 29.2293 10.0375 26.7317 13.125 26.7317C16.2125 26.7317 18.8125 29.2293 18.8125 32.1951C18.8125 35.161 16.2125 37.6585 13.125 37.6585ZM22.55 22.0488L26.45 18.3024L27.75 19.5512C29.8625 21.5805 32.625 22.8293 36.0375 22.8293V19.7073C33.6 19.7073 31.65 18.7707 30.1875 17.3659L27.1 14.4C26.2875 13.7756 25.475 13.4634 24.5 13.4634C23.525 13.4634 22.7125 13.7756 22.225 14.4L17.675 18.7707C17.025 19.3951 16.7 20.1756 16.7 20.9561C16.7 21.8927 17.025 22.6732 17.675 23.1415L22.875 27.5122V35.3171H26.125V25.639L22.55 22.0488ZM35.875 24.3902C31.325 24.3902 27.75 27.8244 27.75 32.1951C27.75 36.5659 31.325 40 35.875 40C40.425 40 44 36.5659 44 32.1951C44 27.8244 40.425 24.3902 35.875 24.3902ZM35.875 37.6585C32.7875 37.6585 30.1875 35.161 30.1875 32.1951C30.1875 29.2293 32.7875 26.7317 35.875 26.7317C38.9625 26.7317 41.5625 29.2293 41.5625 32.1951C41.5625 35.161 38.9625 37.6585 35.875 37.6585Z" fill="white"/>
</svg>
