<svg width="160" height="99" viewBox="0 0 160 99" fill="none" xmlns="http://www.w3.org/2000/svg">
<g clip-path="url(#clip0_764_191)">
<path d="M60.5146 22.1491C58.4622 22.1491 56.7529 22.3236 54.6433 22.012C51.5043 21.8063 48.1874 21.9808 45.2199 23.0714C42.7418 23.9875 40.4733 25.6763 39.3422 28.0257C39.6218 26.4303 39.9967 24.8412 40.6893 23.3768C41.3819 21.9123 42.405 20.56 43.7839 19.6751C44.9848 18.9023 46.4399 18.4973 47.876 18.5409C50.0746 18.6157 52.0507 19.6626 53.9952 20.5538C56.0921 21.5134 58.1826 22.1304 60.5146 22.1491Z" fill="#F1D675"/>
<path d="M33.4517 69.8274C33.2674 69.8274 33.0768 69.7589 32.9306 69.6218C25.4072 62.692 25.1467 55.0892 27.4151 50.2845C28.489 47.9974 30.2301 45.9659 31.9076 44.0029C32.8671 42.8811 33.7694 41.828 34.5573 40.7312C36.2857 38.3257 37.4612 35.3406 37.9505 32.1001L38.103 31.0719C38.8591 25.887 39.8949 18.7828 46.5605 17.8791C49.242 17.5177 51.2309 18.4525 53.3405 19.4433C55.3675 20.3968 57.4644 21.3814 60.5145 21.4126C60.9339 21.4188 61.277 21.7553 61.2706 22.1666C61.2643 22.5779 60.9275 22.9082 60.5081 22.9082H60.5018C57.1149 22.8708 54.7575 21.7616 52.686 20.7832C50.7098 19.8546 49.0005 19.0507 46.7766 19.3499C41.2547 20.0977 40.346 26.2983 39.6217 31.2775L39.4692 32.312C38.9418 35.7831 37.6773 38.9863 35.8155 41.5849C34.9894 42.7316 34.0236 43.8658 33.0895 44.9563C31.4755 46.8446 29.8043 48.8013 28.8131 50.9015C25.6995 57.5072 29.4421 64.3372 33.9854 68.525C34.2904 68.8054 34.3095 69.279 34.0172 69.5844C33.852 69.7464 33.655 69.8274 33.4517 69.8274Z" fill="#769763"/>
<path d="M33.4455 69.8286C33.096 69.8286 32.7783 69.5918 32.702 69.2428C30.6051 59.9138 36.5718 55.6824 36.8259 55.5079C40.9499 52.2113 43.3581 48.9521 43.3835 46.584C43.3899 45.7053 43.0722 45.0136 42.4113 44.4589C41.6107 43.7921 40.4606 43.761 39.3422 44.3842C37.6139 45.3439 35.8601 48.0048 36.5845 52.3609C36.6544 52.7659 36.3684 53.1523 35.9554 53.2209C35.536 53.2894 35.1484 53.009 35.0785 52.6039C34.227 47.4876 36.4383 44.2782 38.5924 43.0817C40.2636 42.1532 42.1063 42.2467 43.3962 43.3185C44.4002 44.1536 44.9213 45.2878 44.9086 46.5964C44.8768 49.4444 42.3351 53.0339 37.7473 56.6982C37.4868 56.8852 32.3208 60.5931 34.1953 68.9188C34.2842 69.3238 34.0237 69.7227 33.617 69.8099C33.5599 69.8224 33.5027 69.8286 33.4455 69.8286Z" fill="#769763"/>
<path d="M36.343 80.0799C35.9237 80.0799 35.5805 79.7434 35.5805 79.3321C35.5805 78.5033 35.5615 77.6558 35.5424 76.8082C35.4598 72.9196 35.3708 68.9063 36.9594 65.2233C37.957 62.9051 39.7044 61.2599 41.401 59.6708C44.4701 56.7855 46.0714 54.3924 46.9292 51.3949C48.0603 47.4502 48.5305 42.8511 48.3272 37.7224C48.0666 31.2413 49.5154 26.5737 52.6354 23.8442C56.1556 20.7657 60.4511 21.3826 60.629 21.4075C61.0484 21.4698 61.328 21.8562 61.2645 22.2613C61.2009 22.6664 60.8133 22.953 60.3939 22.8845C60.3558 22.8782 56.6004 22.361 53.6266 24.9721C50.8752 27.3901 49.6044 31.6588 49.8458 37.6601C50.0555 42.9446 49.5663 47.6995 48.3971 51.7938C47.2342 55.8507 44.737 58.5927 42.4558 60.7426C40.8037 62.2944 39.2406 63.7651 38.3637 65.7966C36.9086 69.1867 36.9912 73.0442 37.0674 76.7708C37.0865 77.6308 37.1055 78.4846 37.1055 79.3259C37.1055 79.7496 36.7624 80.0799 36.343 80.0799Z" fill="#769763"/>
<path d="M72.0413 60.026C71.6219 60.026 71.2788 59.6895 71.2788 59.2782V37.9903C71.2788 37.579 71.6219 37.2425 72.0413 37.2425C72.4607 37.2425 72.8038 37.579 72.8038 37.9903V59.2782C72.8038 59.6895 72.4607 60.026 72.0413 60.026Z" fill="#769763"/>
<path d="M76.9214 45.5869H72.0413C71.6219 45.5869 71.2788 45.2504 71.2788 44.8391C71.2788 44.4278 71.6219 44.0913 72.0413 44.0913H76.9214C78.4273 44.0913 79.6537 42.8885 79.6537 41.4178C79.6537 39.9409 78.4273 38.7382 76.9214 38.7382H72.0413C71.6219 38.7382 71.2788 38.4016 71.2788 37.9903C71.2788 37.579 71.6219 37.2425 72.0413 37.2425H76.9214C79.2661 37.2425 81.1787 39.1121 81.1787 41.4178C81.1787 43.7236 79.2661 45.5869 76.9214 45.5869Z" fill="#769763"/>
<path d="M81.1025 60.026C80.7594 60.026 80.4416 59.7954 80.359 59.4527L76.8642 45.0136C76.7689 44.6085 77.023 44.2097 77.4297 44.11C77.8427 44.0165 78.2494 44.2658 78.3511 44.6646L81.8459 59.1037C81.9412 59.5088 81.6871 59.9076 81.2804 60.0073C81.2232 60.0198 81.1597 60.026 81.1025 60.026Z" fill="#769763"/>
<path d="M102.745 60.2254C101.163 60.2254 99.8221 59.0663 99.6251 57.527L97.1406 38.2832C97.0898 37.8719 97.3821 37.498 97.8014 37.4482C98.2208 37.3921 98.6021 37.685 98.6529 38.0963L101.144 57.3463C101.245 58.1378 101.938 58.736 102.751 58.736C103.565 58.736 104.251 58.1378 104.353 57.3463L106.837 38.1025C106.888 37.6912 107.269 37.3983 107.689 37.4544C108.108 37.5043 108.4 37.8782 108.35 38.2895L105.865 57.5333C105.668 59.0663 104.327 60.2254 102.745 60.2254Z" fill="#769763"/>
<path d="M133.074 60.2254H124.769C124.35 60.2254 124.006 59.8889 124.006 59.4776V38.3954C124.006 37.9841 124.35 37.6476 124.769 37.6476C125.188 37.6476 125.531 37.9841 125.531 38.3954V58.7298H133.068C133.487 58.7298 133.83 59.0663 133.83 59.4776C133.83 59.8889 133.493 60.2254 133.074 60.2254Z" fill="#769763"/>
<path d="M92.7943 49.3821H86.6625C86.2431 49.3821 85.9 49.0456 85.9 48.6343C85.9 48.223 86.2431 47.8864 86.6625 47.8864H92.7943C93.2137 47.8864 93.5569 48.223 93.5569 48.6343C93.5569 49.0456 93.2137 49.3821 92.7943 49.3821Z" fill="#F1D675"/>
<path d="M94.5036 60.026C94.1224 60.026 93.7983 59.7518 93.7475 59.3716L91.2629 40.1278C91.1613 39.3364 90.4687 38.7382 89.6553 38.7382C88.842 38.7382 88.1557 39.3364 88.0477 40.1278L85.5759 59.3716C85.525 59.7829 85.1374 60.0758 84.7244 60.0197C84.305 59.9699 84.0127 59.596 84.0636 59.1847L86.5481 39.9409C86.7451 38.4016 88.0858 37.2425 89.668 37.2425C91.2502 37.2425 92.591 38.4016 92.788 39.9409L95.2725 59.1847C95.3233 59.596 95.031 59.9699 94.6116 60.0197C94.5672 60.0197 94.5354 60.026 94.5036 60.026Z" fill="#769763"/>
<path d="M118.383 48.5657H112.08C111.66 48.5657 111.317 48.2292 111.317 47.8179C111.317 47.4066 111.66 47.0701 112.08 47.0701H118.383C118.802 47.0701 119.145 47.4066 119.145 47.8179C119.145 48.2292 118.802 48.5657 118.383 48.5657Z" fill="#F1D675"/>
<path d="M119.59 60.0945H112.086C111.667 60.0945 111.323 59.758 111.323 59.3467V38.4702C111.323 38.0589 111.667 37.7224 112.086 37.7224H119.387C119.806 37.7224 120.15 38.0589 120.15 38.4702C120.15 38.8815 119.806 39.218 119.387 39.218H112.848V58.5989H119.59C120.01 58.5989 120.353 58.9354 120.353 59.3467C120.353 59.758 120.01 60.0945 119.59 60.0945Z" fill="#769763"/>
<path d="M63.4821 60.026C63.0627 60.026 62.7196 59.6895 62.7196 59.2782V37.9903C62.7196 37.579 63.0627 37.2425 63.4821 37.2425C63.9015 37.2425 64.2446 37.579 64.2446 37.9903V59.2844C64.2446 59.6957 63.9015 60.026 63.4821 60.026Z" fill="#769763"/>
<path d="M68.0127 38.7382H58.9515C58.5321 38.7382 58.189 38.4016 58.189 37.9903C58.189 37.579 58.5321 37.2425 58.9515 37.2425H68.0127C68.4321 37.2425 68.7752 37.579 68.7752 37.9903C68.7752 38.4016 68.4384 38.7382 68.0127 38.7382Z" fill="#769763"/>
<path d="M65.8077 68.2582C65.7442 68.2021 65.7124 68.1336 65.7124 68.0526C65.7124 67.9591 65.7506 67.8843 65.8268 67.8344C65.9031 67.7784 65.992 67.7472 66.0873 67.7472C66.0937 67.7472 66.1 67.7472 66.1 67.7472C66.2017 67.7534 66.2907 67.7846 66.3669 67.8469C67.0341 68.4015 67.5552 68.9188 67.9301 69.4048C67.9809 69.4734 68.0063 69.5482 68.0063 69.623C68.0063 69.6479 68.0063 69.6728 68 69.6977C67.9872 69.7975 67.9301 69.8847 67.8411 69.9532C67.7776 70.0031 67.7077 70.028 67.6314 70.028C67.606 70.028 67.5806 70.028 67.5552 70.0218C67.4535 70.0031 67.3709 69.947 67.3073 69.8598C67.2311 69.7538 67.1421 69.6417 67.0468 69.5295C67.0214 69.4983 66.9896 69.4859 66.9579 69.4921C66.3351 69.5233 64.6068 69.5918 61.7855 69.7102C61.7791 69.7102 61.7728 69.7102 61.7728 69.7102C61.6775 69.7102 61.5949 69.679 61.525 69.623C61.4424 69.5482 61.3979 69.4547 61.3979 69.3425C61.3979 69.2615 61.4297 69.1867 61.4868 69.1244C61.5504 69.0496 61.633 69.0122 61.7347 69.006L62.4718 68.9811C62.5035 68.9811 62.5353 68.9686 62.5544 68.9375C62.9293 68.3766 63.2597 67.7784 63.5583 67.1489C63.6092 67.0492 63.6854 66.9682 63.7998 66.9246C63.857 66.8997 63.9205 66.8872 63.9777 66.8872C64.0285 66.8872 64.0794 66.8934 64.1239 66.9121C64.2255 66.9433 64.3018 67.0118 64.3399 67.1178C64.359 67.1614 64.3717 67.205 64.3717 67.2487C64.3717 67.3047 64.359 67.3546 64.3272 67.4107C64.0286 67.9404 63.7235 68.4389 63.4058 68.9063C63.3995 68.9188 63.3995 68.925 63.4058 68.9375C63.4122 68.9499 63.4185 68.9499 63.4313 68.9499C65.3502 68.8751 66.3288 68.8378 66.3733 68.8378C66.386 68.8378 66.3923 68.8315 66.3987 68.8253C66.405 68.8191 66.3987 68.8066 66.3923 68.7941C66.1763 68.5947 65.9857 68.414 65.8077 68.2582ZM62.5988 73.6861C62.4972 73.6861 62.4146 73.6487 62.3447 73.5801C62.2748 73.5116 62.2366 73.4244 62.2366 73.3309V70.9129C62.2366 70.7883 62.2811 70.6886 62.3701 70.6076C62.459 70.5266 62.5607 70.483 62.6814 70.483H66.71C66.8308 70.483 66.9324 70.5266 67.0214 70.6076C67.1104 70.6886 67.1548 70.7945 67.1548 70.9129V73.306C67.1548 73.4057 67.1167 73.4929 67.0405 73.5677C66.9642 73.6425 66.8753 73.6799 66.7736 73.6799H66.6719C66.5957 73.6799 66.5258 73.6549 66.4686 73.5988C66.4114 73.5428 66.386 73.4804 66.386 73.4119C66.386 73.387 66.3733 73.3745 66.3542 73.3745H63.0055C62.9865 73.3745 62.9737 73.387 62.9737 73.4119C62.9737 73.4867 62.9483 73.5552 62.8911 73.6113C62.8339 73.6674 62.7641 73.6923 62.6878 73.6923H62.5988V73.6861ZM66.3733 71.1934C66.3733 71.1622 66.3542 71.1435 66.3224 71.1435H63.0182C62.9865 71.1435 62.9674 71.1622 62.9674 71.1934V72.6391C62.9674 72.6765 62.9865 72.6952 63.0182 72.6952H66.3224C66.3542 72.6952 66.3733 72.6765 66.3733 72.6391V71.1934Z" fill="#769763"/>
<path d="M74.8943 69.3737C74.9706 69.4298 75.0087 69.5046 75.0214 69.598C75.0278 69.6105 75.0278 69.6292 75.0278 69.6417C75.0278 69.7164 75.0024 69.7912 74.9452 69.8598C74.8943 69.9283 74.8244 69.9657 74.7355 69.9782C74.7228 69.9782 74.7101 69.9782 74.6974 69.9782C74.6211 69.9782 74.5512 69.9533 74.4877 69.9034C74.3161 69.7725 74.1255 69.6354 73.9158 69.5046C73.8459 69.4672 73.8014 69.4049 73.7887 69.3238C73.7823 69.3114 73.7823 69.2927 73.7823 69.274C73.7823 69.2179 73.8014 69.1618 73.8395 69.112C73.8967 69.0434 73.9666 68.9998 74.0556 68.9811C74.0874 68.9749 74.1128 68.9749 74.1382 68.9749C74.1954 68.9749 74.2526 68.9873 74.3097 69.0185C74.5385 69.1369 74.7355 69.2553 74.8943 69.3737ZM74.5766 73.2686C74.5449 73.3558 74.475 73.4119 74.386 73.4431C74.3542 73.4555 74.3161 73.4555 74.2843 73.4555C74.2271 73.4555 74.1763 73.4431 74.1255 73.4181C74.0365 73.362 73.973 73.2935 73.9412 73.2C73.9285 73.1564 73.9285 73.1128 73.9285 73.0754C73.9285 73.0193 73.9412 72.9694 73.9603 72.9134C74.2017 72.365 74.4368 71.7916 74.6592 71.1747C74.6847 71.0999 74.7355 71.0438 74.8181 71.0189C74.9007 70.994 74.9769 71.0002 75.0468 71.0438C75.1231 71.0999 75.1803 71.1685 75.2184 71.2619C75.2375 71.3118 75.2502 71.3616 75.2502 71.4053C75.2502 71.4489 75.2438 71.4925 75.2248 71.5361C75.0214 72.1468 74.8054 72.7202 74.5766 73.2686ZM75.0532 67.4668C75.1358 67.5291 75.1803 67.6101 75.1803 67.716C75.1803 67.8033 75.1485 67.8843 75.0913 67.9528C75.0341 68.0214 74.9642 68.0526 74.8689 68.0526H74.8626C74.78 68.0526 74.7037 68.0276 74.6402 67.9715C74.4877 67.8344 74.297 67.6911 74.0746 67.5415C74.0111 67.4979 73.973 67.4356 73.9603 67.3608C73.9476 67.286 73.9666 67.2113 74.0238 67.1489C74.081 67.0866 74.1572 67.0492 74.2462 67.0305C74.2589 67.0243 74.2843 67.0243 74.3097 67.0243C74.3733 67.0243 74.4368 67.043 74.494 67.0742C74.7037 67.205 74.888 67.3359 75.0532 67.4668ZM75.4154 69.4983C75.4281 69.4422 75.4599 69.3924 75.5107 69.3612C75.5488 69.3363 75.587 69.3238 75.6314 69.3238C75.6441 69.3238 75.6632 69.3238 75.6823 69.3301C75.7395 69.3425 75.7903 69.3675 75.8221 69.4235C75.8538 69.4796 75.8665 69.5295 75.8538 69.5856C75.7903 69.8411 75.7077 70.0654 75.6124 70.2586C75.587 70.3085 75.5488 70.3396 75.4916 70.3583C75.4345 70.377 75.3773 70.3708 75.3264 70.3459C75.2756 70.3209 75.2438 70.2835 75.2248 70.2275C75.2121 70.2025 75.2121 70.1776 75.2121 70.1527C75.2121 70.1215 75.2184 70.0966 75.2375 70.0654C75.3074 69.9034 75.3709 69.7102 75.4154 69.4983ZM75.4599 67.9279C75.409 67.8905 75.3836 67.8407 75.3773 67.7846C75.3709 67.7285 75.3836 67.6724 75.409 67.6226L75.4599 67.5478C75.4789 67.5166 75.5044 67.5042 75.5425 67.4979C75.5806 67.4917 75.6124 67.4979 75.6378 67.5229C75.6505 67.5291 75.6569 67.5229 75.6632 67.5166C75.7649 67.3359 75.8475 67.1739 75.9174 67.0243C75.9428 66.9682 75.9873 66.9246 76.0508 66.8997C76.0762 66.8872 76.1017 66.8872 76.1334 66.8872C76.1652 66.8872 76.1906 66.8934 76.2224 66.9121C76.2796 66.9371 76.3241 66.9807 76.3431 67.043C76.3622 67.1053 76.3558 67.1614 76.3177 67.2175C76.1715 67.4543 76.0635 67.6288 75.9873 67.741C75.9682 67.7721 75.9746 67.797 76 67.822C76.0318 67.8531 76.0762 67.8905 76.1271 67.9341C76.1525 67.9591 76.1715 67.9591 76.197 67.9279C76.2669 67.822 76.324 67.7223 76.3749 67.635C76.4067 67.5789 76.4511 67.5478 76.521 67.5229C76.5909 67.4979 76.6481 67.5104 76.7053 67.5478C76.7625 67.5789 76.8006 67.6288 76.8133 67.6911C76.826 67.7534 76.8133 67.8095 76.7752 67.8594C76.5592 68.1523 76.3622 68.4015 76.197 68.6072C76.1906 68.6196 76.1906 68.6259 76.197 68.6321C76.2033 68.6383 76.2097 68.6446 76.2224 68.6446L76.5719 68.6383C76.5909 68.6383 76.5973 68.6259 76.5973 68.6072C76.5909 68.5947 76.5846 68.576 76.5846 68.5573C76.5655 68.5137 76.5655 68.4701 76.5846 68.4265C76.6036 68.3828 76.6354 68.3579 76.6735 68.3455C76.7244 68.3268 76.7688 68.3268 76.8133 68.3392C76.8578 68.3517 76.8896 68.3891 76.9086 68.4327C76.9785 68.5823 77.0357 68.7443 77.0866 68.9063C77.0993 68.9624 77.0929 69.0123 77.0675 69.0559C77.0421 69.0995 77.004 69.1369 76.9531 69.1556L76.9277 69.1618C76.8896 69.1743 76.8515 69.1743 76.807 69.1556C76.7625 69.1369 76.7434 69.1057 76.7307 69.0621C76.7307 69.0496 76.7244 69.0372 76.7053 69.0372L76.4893 69.0496C76.4575 69.0559 76.4384 69.0746 76.4384 69.1057V70.3272C76.4384 70.3895 76.413 70.4456 76.3685 70.4892C76.3241 70.5328 76.2669 70.5577 76.2033 70.5577C76.1398 70.5577 76.0826 70.5328 76.0381 70.4892C75.9936 70.4456 75.9682 70.3895 75.9682 70.3272V69.1431C75.9682 69.1057 75.9492 69.087 75.9174 69.0933C75.803 69.1057 75.6696 69.112 75.5171 69.1244C75.4535 69.1307 75.3963 69.112 75.3455 69.0683C75.2947 69.0247 75.2692 68.9749 75.2565 68.9125C75.2502 68.8502 75.2692 68.7941 75.3137 68.7505C75.3582 68.7069 75.409 68.682 75.4662 68.682L75.6124 68.6757C75.6441 68.6757 75.6696 68.6633 75.6886 68.6383C75.7522 68.5636 75.8157 68.4888 75.8729 68.4015C75.8983 68.3704 75.8983 68.3454 75.8729 68.3143C75.7331 68.171 75.5997 68.0463 75.4599 67.9279ZM76.4956 72.097C76.4893 72.1095 76.4893 72.1157 76.502 72.1282C76.5147 72.1406 76.521 72.1468 76.5337 72.1468H79.9206C80.0349 72.1468 80.1303 72.1905 80.2065 72.2777C80.2637 72.34 80.2955 72.4086 80.2955 72.4896C80.2955 72.5145 80.2891 72.5395 80.2828 72.5706C80.1684 73.0567 80.0222 73.3745 79.838 73.5116C79.6918 73.6113 79.4821 73.6674 79.2152 73.6799C78.8658 73.6799 78.5735 73.6736 78.332 73.6674C78.2557 73.6674 78.1795 73.6425 78.1223 73.5864C78.0651 73.5303 78.0143 73.4618 77.9825 73.3807C77.9635 73.3247 77.9698 73.2748 78.0016 73.2249C78.0333 73.1751 78.0778 73.1502 78.1414 73.1564C78.44 73.1751 78.7323 73.1876 79.0119 73.1876C79.1708 73.1876 79.2788 73.1689 79.3423 73.1377C79.444 73.0629 79.533 72.9009 79.6028 72.6579C79.6028 72.6454 79.5965 72.6329 79.5901 72.6205C79.5838 72.608 79.5711 72.6018 79.5584 72.6018H76.3939C76.3749 72.6018 76.3622 72.6142 76.3558 72.6329C76.3431 72.689 76.305 72.7389 76.2542 72.77C76.2033 72.8012 76.1461 72.8136 76.0889 72.8012L75.9746 72.7887C75.8983 72.7763 75.8348 72.7389 75.7903 72.6641C75.7585 72.6205 75.7458 72.5768 75.7458 72.527C75.7458 72.5021 75.7522 72.4771 75.7585 72.446C75.8157 72.2715 75.8729 72.0721 75.9301 71.8477C75.9619 71.7231 76.0254 71.6234 76.1271 71.5486C76.2287 71.4738 76.3431 71.4302 76.4638 71.4302H79.2978C79.336 71.4302 79.355 71.4115 79.355 71.3741V71.1622C79.355 71.1311 79.336 71.1124 79.2978 71.1124H75.9746C75.9174 71.1124 75.8665 71.0937 75.8221 71.05C75.7776 71.0064 75.7585 70.9566 75.7585 70.9005C75.7585 70.8444 75.7776 70.7945 75.8221 70.7509C75.8665 70.7073 75.9174 70.6886 75.9746 70.6886H79.5774C79.6982 70.6886 79.7998 70.7322 79.8888 70.8195C79.9778 70.9067 80.0222 71.0064 80.0222 71.1248V71.424C80.0222 71.5424 79.9778 71.6421 79.8888 71.7293C79.7998 71.8166 79.6982 71.8602 79.5774 71.8602H76.6291C76.5909 71.8602 76.5655 71.8789 76.5528 71.91L76.4956 72.097ZM77.0484 69.9096C77.0611 69.9657 77.0484 70.0156 77.0167 70.0592C76.9849 70.1028 76.9468 70.1402 76.8896 70.1589C76.8387 70.1714 76.7943 70.1589 76.7498 70.134C76.7053 70.109 76.6799 70.0654 76.6672 70.0156C76.6418 69.8722 76.61 69.7227 76.5719 69.5793C76.5592 69.5233 76.5719 69.4796 76.5973 69.436C76.6227 69.3924 76.6608 69.3675 76.7117 69.355C76.7689 69.3425 76.8133 69.355 76.8578 69.3799C76.9023 69.4049 76.9341 69.4422 76.9468 69.4921C76.9849 69.623 77.0167 69.7663 77.0484 69.9096ZM78.7895 67.8469C78.7831 67.8407 78.7831 67.8469 78.7831 67.8531C78.7831 67.8843 78.7704 67.903 78.7514 67.9217C78.7323 67.9404 78.7069 67.9466 78.6751 67.9466H77.1628C77.1056 67.9466 77.0611 67.9279 77.023 67.8905C76.9849 67.8531 76.9658 67.8095 76.9658 67.7534C76.9658 67.6973 76.9849 67.6537 77.023 67.6163C77.0611 67.5789 77.112 67.5602 77.1628 67.5602H78.6624C78.6942 67.5602 78.7196 67.5727 78.745 67.5976C78.7704 67.6226 78.7831 67.6537 78.7831 67.6849H78.7895L78.8912 67.5478C78.9166 67.5228 78.9484 67.5104 78.9801 67.5042C79.0119 67.4979 79.0437 67.5042 79.0691 67.5291C79.0818 67.5353 79.0882 67.5291 79.0945 67.5229C79.1962 67.3546 79.2851 67.1863 79.3614 67.0243C79.3932 66.9682 79.4376 66.9246 79.4948 66.9059C79.5202 66.8934 79.5457 66.8934 79.5711 66.8934C79.6029 66.8934 79.641 66.8997 79.6727 66.9184C79.7299 66.9495 79.7617 66.9932 79.7808 67.0555C79.7998 67.1178 79.7871 67.1739 79.7553 67.23C79.6092 67.4668 79.4948 67.635 79.4122 67.7472C79.3932 67.7784 79.3932 67.8033 79.4186 67.8282C79.4694 67.8718 79.5139 67.9155 79.552 67.9591C79.5838 67.9902 79.6092 67.9902 79.6283 67.9591C79.7045 67.8469 79.7871 67.7285 79.8697 67.6039C79.9015 67.5478 79.9523 67.5104 80.0159 67.4917C80.0794 67.473 80.143 67.4855 80.2002 67.5166C80.2573 67.5478 80.2891 67.5976 80.3018 67.6599C80.3145 67.7223 80.3018 67.7784 80.2637 67.822C79.9905 68.1647 79.7744 68.4327 79.6092 68.6134C79.6028 68.6259 79.6028 68.6321 79.6092 68.6446C79.6156 68.657 79.6219 68.657 79.6346 68.6508L80.0858 68.6446C80.1048 68.6446 80.1112 68.6321 80.0985 68.6134C80.0858 68.5885 80.0794 68.5636 80.0667 68.5386C80.0413 68.495 80.0413 68.4514 80.054 68.4015C80.0667 68.3517 80.1048 68.3205 80.1493 68.3018C80.2001 68.2769 80.251 68.2769 80.3082 68.2894C80.3654 68.3018 80.4035 68.3392 80.4289 68.3891C80.5115 68.5386 80.5878 68.6944 80.6513 68.8565C80.6704 68.9125 80.6704 68.9686 80.6449 69.0247C80.6195 69.0808 80.5814 69.1182 80.5306 69.1431L80.4924 69.1556C80.4543 69.1743 80.4098 69.1743 80.3717 69.1556C80.3336 69.1369 80.3018 69.1057 80.2955 69.0621C80.2891 69.0496 80.2828 69.0372 80.2637 69.0372L79.9778 69.0621C79.946 69.0621 79.9269 69.0808 79.9269 69.1182V70.3209C79.9269 70.3832 79.9015 70.4393 79.857 70.483C79.8125 70.5266 79.7554 70.5515 79.6855 70.5515C79.6156 70.5515 79.5584 70.5266 79.5139 70.483C79.4694 70.4393 79.444 70.3832 79.444 70.3209V69.1431C79.444 69.1057 79.4249 69.087 79.3932 69.0933L78.9865 69.1182C78.9229 69.1244 78.8658 69.1057 78.8149 69.0621C78.7641 69.0185 78.7387 68.9686 78.7323 68.9063C78.726 68.844 78.745 68.7879 78.7831 68.7443C78.8213 68.7007 78.8721 68.6695 78.942 68.6695H79.031C79.0627 68.6695 79.0882 68.657 79.1072 68.6383C79.139 68.5947 79.1962 68.5262 79.2788 68.4265C79.3042 68.3953 79.3042 68.3704 79.2788 68.3392C79.1517 68.1772 78.9928 68.0152 78.7895 67.8469ZM77.614 70.4393C77.4932 70.4393 77.3916 70.3957 77.3026 70.3147C77.2136 70.2337 77.1692 70.1277 77.1692 70.0093V69.7663C77.1692 69.6417 77.2136 69.542 77.3026 69.4609C77.3916 69.3799 77.4932 69.3363 77.614 69.3363H78.1731C78.3002 69.3363 78.4019 69.3799 78.4845 69.4609C78.5671 69.542 78.6116 69.6479 78.6116 69.7663V70.0093C78.6116 70.134 78.5671 70.2337 78.4845 70.3147C78.4019 70.3957 78.2939 70.4393 78.1731 70.4393H77.614ZM78.4273 68.1834C78.4781 68.1834 78.5163 68.2021 78.5544 68.2333C78.5925 68.2644 78.6052 68.3081 78.6052 68.3579C78.6052 68.4078 78.5862 68.4452 78.5544 68.4825C78.5226 68.5199 78.4781 68.5324 78.4273 68.5324H77.3725C77.3217 68.5324 77.2835 68.5137 77.2454 68.4825C77.2073 68.4514 77.1946 68.4078 77.1946 68.3579C77.1946 68.3081 77.2136 68.2707 77.2454 68.2333C77.2772 68.1959 77.3217 68.1834 77.3725 68.1834H78.4273ZM77.3662 69.0995C77.3153 69.0995 77.2772 69.0808 77.2391 69.0496C77.2009 69.0185 77.1882 68.9749 77.1882 68.925C77.1882 68.8752 77.2073 68.8378 77.2391 68.8004C77.2708 68.763 77.3153 68.7505 77.3662 68.7505H78.421C78.4718 68.7505 78.5099 68.7692 78.548 68.8004C78.5862 68.8315 78.5989 68.8752 78.5989 68.925C78.5989 68.9749 78.5798 69.0123 78.548 69.0496C78.5163 69.087 78.4718 69.0995 78.421 69.0995H77.3662ZM78.3701 66.9745C78.421 66.9745 78.4591 66.9931 78.4972 67.0305C78.5353 67.0679 78.548 67.1116 78.548 67.1614C78.548 67.2113 78.529 67.2487 78.4972 67.286C78.4654 67.3234 78.421 67.3359 78.3701 67.3359H77.4233C77.3725 67.3359 77.328 67.3172 77.2899 67.286C77.2518 67.2549 77.2327 67.2113 77.2327 67.1614C77.2327 67.1116 77.2518 67.0679 77.2899 67.0305C77.328 66.9931 77.3725 66.9745 77.4233 66.9745H78.3701ZM77.6775 69.6791C77.6394 69.6791 77.6203 69.6977 77.6203 69.7351V70.0405C77.6203 70.0717 77.6394 70.0904 77.6775 70.0904H78.1096C78.1414 70.0904 78.1604 70.0717 78.1604 70.0405V69.7351C78.1604 69.6977 78.1414 69.6791 78.1096 69.6791H77.6775ZM78.8975 69.4983C78.9102 69.4422 78.9484 69.3924 78.9992 69.3612C79.05 69.3301 79.1072 69.3176 79.1644 69.3301C79.2216 69.3425 79.2724 69.3737 79.3042 69.4235C79.336 69.4734 79.3423 69.5295 79.3296 69.5856C79.2661 69.8348 79.1962 70.0467 79.1199 70.2212C79.0945 70.2773 79.05 70.3085 78.9928 70.3334C78.9357 70.3583 78.8785 70.3459 78.8276 70.3209C78.7704 70.2898 78.7387 70.2461 78.7133 70.1901C78.6878 70.134 78.6942 70.0779 78.7196 70.028C78.7895 69.8785 78.8467 69.704 78.8975 69.4983ZM80.1112 69.5669C80.0921 69.5233 80.0921 69.4796 80.1175 69.4298C80.143 69.3799 80.1747 69.3488 80.2256 69.3363C80.2828 69.3238 80.3336 69.3238 80.3844 69.3488C80.4353 69.3737 80.467 69.4111 80.4861 69.4609C80.575 69.6728 80.6449 69.8598 80.6958 70.0405C80.7021 70.0592 80.7021 70.0779 80.7021 70.0966C80.7021 70.1277 80.6894 70.1651 80.6704 70.1901C80.6386 70.2461 80.6005 70.2773 80.5433 70.2898C80.4924 70.3085 80.448 70.3085 80.3971 70.2773C80.3463 70.2461 80.3209 70.2088 80.3018 70.1589C80.251 69.9782 80.1874 69.7788 80.1112 69.5669Z" fill="#769763"/>
<path d="M92.3114 72.9944H92.5782C92.6354 72.9944 92.6735 72.957 92.6926 72.876C92.7117 72.795 92.7307 72.6205 92.7434 72.3525C92.7434 72.2902 92.7689 72.2403 92.8261 72.2154C92.8832 72.1905 92.9404 72.1842 93.004 72.2092C93.0866 72.2403 93.1501 72.2964 93.1946 72.3712C93.2391 72.4273 93.2645 72.4958 93.2645 72.5706C93.2645 72.9134 93.2073 73.1813 93.0866 73.3683C92.9976 73.4991 92.8515 73.5677 92.6545 73.5677H92.2097C91.9619 73.5677 91.7967 73.5178 91.7141 73.4119C91.6315 73.306 91.5933 73.1065 91.5933 72.8137V71.3616C91.5933 71.3242 91.5743 71.3056 91.5361 71.3056H91.2438C91.2121 71.3056 91.1867 71.3242 91.1867 71.3616C91.1549 71.8851 91.0659 72.3213 90.9325 72.6516C90.799 72.9819 90.5639 73.2623 90.2462 73.4742C90.17 73.5178 90.1001 73.5428 90.0238 73.5428C89.9921 73.5428 89.9539 73.5365 89.9094 73.5303C89.7951 73.4992 89.6934 73.4306 89.6108 73.3309C89.5917 73.306 89.56 73.2935 89.5218 73.2935H87.3487C87.3169 73.2935 87.3042 73.306 87.3042 73.3309V73.3434C87.3042 73.4181 87.2788 73.4867 87.2216 73.5428C87.1644 73.5989 87.1009 73.6238 87.0183 73.6238C86.9357 73.6238 86.8721 73.5989 86.8149 73.5428C86.7577 73.4867 86.7323 73.4181 86.7323 73.3434V71.5611C86.7323 71.5486 86.726 71.5424 86.7196 71.5424C86.7133 71.5424 86.7006 71.5424 86.6942 71.5548C86.6688 71.586 86.6434 71.6234 86.6179 71.6545C86.5671 71.7106 86.5036 71.7418 86.4337 71.7355C86.3638 71.7293 86.3002 71.6982 86.2558 71.6358C86.2049 71.5735 86.1795 71.505 86.1795 71.424C86.1795 71.3367 86.2113 71.2557 86.2685 71.1872C86.5735 70.8132 86.8149 70.3645 87.0056 69.8411C87.0119 69.8286 87.0119 69.8162 86.9992 69.8037C86.9865 69.7912 86.9801 69.785 86.9674 69.785H86.8848C86.7577 69.785 86.6561 69.7414 86.5735 69.6604C86.4909 69.5793 86.4464 69.4734 86.4464 69.355V68.8191C86.4464 68.6944 86.4909 68.5947 86.5735 68.5137C86.6561 68.4327 86.7641 68.3891 86.8848 68.3891H87.4948C87.6219 68.3891 87.7236 68.4327 87.8062 68.5137C87.8888 68.5947 87.9333 68.7007 87.9333 68.8191V69.355C87.9333 69.4796 87.8888 69.5793 87.8062 69.6604C87.7236 69.7414 87.6156 69.785 87.4948 69.785H87.3805V69.7912C87.4376 69.8037 87.4758 69.8348 87.5012 69.8847C87.5266 69.9346 87.5266 69.9844 87.5075 70.028C87.4821 70.0966 87.4504 70.1838 87.4122 70.2835C87.4059 70.296 87.4059 70.3085 87.4186 70.3209C87.4313 70.3334 87.4376 70.3334 87.444 70.3334H88.0667C88.0985 70.3334 88.1239 70.3147 88.143 70.2835C88.2256 70.053 88.2764 69.8909 88.3018 69.785C88.3082 69.7788 88.3082 69.7788 88.3018 69.7788C88.2637 69.7788 88.2446 69.7601 88.2446 69.7289V68.8191C88.2446 68.6944 88.2891 68.5947 88.3781 68.5137C88.467 68.4327 88.5687 68.3891 88.6894 68.3891H89.3503C89.4774 68.3891 89.579 68.4327 89.6616 68.5137C89.7442 68.5947 89.7887 68.7007 89.7887 68.8191V69.355C89.7887 69.4796 89.7442 69.5793 89.6616 69.6604C89.579 69.7414 89.471 69.785 89.3503 69.785H88.5623C88.556 69.785 88.556 69.7912 88.556 69.7975C88.6513 69.8162 88.7149 69.8722 88.7593 69.9595C88.7784 69.9969 88.7911 70.0343 88.7911 70.0779C88.7911 70.1215 88.7784 70.1651 88.753 70.2088C88.7403 70.2337 88.7276 70.2586 88.7085 70.2898C88.7021 70.3022 88.7021 70.3147 88.7149 70.3272C88.7276 70.3396 88.7339 70.3396 88.7403 70.3396H89.5981C89.668 70.3396 89.7252 70.3646 89.776 70.4144C89.8268 70.4643 89.8459 70.5203 89.8459 70.5889C89.8459 70.6574 89.8205 70.7135 89.776 70.7634C89.7315 70.8132 89.668 70.8382 89.5981 70.8382H88.6577C88.6195 70.8382 88.6005 70.8569 88.6005 70.888V71.1435C88.6005 71.1809 88.6195 71.1996 88.6577 71.1996H89.471C89.5345 71.1996 89.5917 71.2183 89.6299 71.2619C89.668 71.3056 89.6934 71.3554 89.6934 71.4177C89.6934 71.48 89.6743 71.5299 89.6299 71.5735C89.5854 71.6171 89.5345 71.6358 89.471 71.6358H88.6577C88.6195 71.6358 88.6005 71.6545 88.6005 71.6919V71.9537C88.6005 71.9848 88.6195 72.0035 88.6577 72.0035H89.471C89.5345 72.0035 89.5917 72.0284 89.6299 72.0721C89.668 72.1157 89.6934 72.1655 89.6934 72.2279C89.6934 72.2902 89.6743 72.34 89.6299 72.3837C89.5854 72.4273 89.5345 72.4522 89.471 72.4522H88.6577C88.6195 72.4522 88.6005 72.4709 88.6005 72.5021V72.77C88.6005 72.8012 88.6195 72.8199 88.6577 72.8199H89.7061C89.7442 72.8199 89.7824 72.8323 89.8078 72.8635C89.8332 72.8947 89.8523 72.9321 89.8523 72.9757C89.8523 72.9881 89.8586 72.9944 89.8777 72.9819C90.1255 72.8136 90.3034 72.608 90.4051 72.3525C90.5067 72.097 90.5703 71.7667 90.5957 71.3616C90.6021 71.3305 90.583 71.3118 90.5512 71.3118C90.4432 71.3118 90.3479 71.2744 90.2716 71.1996C90.1954 71.1248 90.1573 71.0376 90.1573 70.9316V67.5478C90.1573 67.4231 90.2017 67.3234 90.2907 67.2424C90.3797 67.1614 90.4813 67.1178 90.6021 67.1178H92.4702C92.5909 67.1178 92.6926 67.1614 92.7816 67.2424C92.8705 67.3234 92.915 67.4294 92.915 67.5478V70.8756C92.915 71.0002 92.8705 71.0999 92.7816 71.1809C92.6926 71.2619 92.5909 71.3056 92.4702 71.3056H92.2669C92.2351 71.3056 92.216 71.3242 92.216 71.3616V72.8074C92.216 72.8884 92.2224 72.9445 92.2415 72.9694C92.2605 72.9944 92.2605 72.9944 92.3114 72.9944ZM87.552 68.1585C87.4948 68.2146 87.4186 68.2395 87.336 68.2395C87.2534 68.2395 87.1835 68.2146 87.1263 68.1585C87.0691 68.1024 87.0437 68.0339 87.0437 67.9528V67.8531C87.0437 67.822 87.0246 67.8033 86.9929 67.8033H86.5226C86.4527 67.8033 86.3956 67.7784 86.3447 67.7285C86.2939 67.6786 86.2685 67.6226 86.2685 67.554C86.2685 67.4855 86.2939 67.4294 86.3447 67.3795C86.3956 67.3297 86.4527 67.3047 86.5226 67.3047H86.9929C87.0246 67.3047 87.0437 67.286 87.0437 67.2549V67.1489C87.0437 67.0742 87.0691 67.0056 87.1263 66.9433C87.1835 66.881 87.2534 66.856 87.336 66.856C87.4186 66.856 87.4948 66.8872 87.552 66.9433C87.6092 66.9994 87.641 67.0679 87.641 67.1489V67.2487C87.641 67.2798 87.6537 67.2985 87.6855 67.2985H88.4988C88.5306 67.2985 88.5496 67.2798 88.5496 67.2487V67.1489C88.5496 67.0742 88.5814 67.0056 88.6386 66.9433C88.6958 66.881 88.772 66.856 88.8546 66.856C88.9373 66.856 89.0071 66.8872 89.0643 66.9433C89.1215 66.9994 89.1469 67.0679 89.1469 67.1489V67.2487C89.1469 67.2798 89.166 67.2985 89.1978 67.2985H89.6299C89.6998 67.2985 89.757 67.3234 89.8078 67.3733C89.8586 67.4231 89.884 67.4792 89.884 67.5478C89.884 67.6163 89.8586 67.6724 89.8078 67.7223C89.757 67.7721 89.6998 67.797 89.6299 67.797H89.1978C89.166 67.797 89.1469 67.8157 89.1469 67.8469V67.9466C89.1469 68.0276 89.1215 68.0962 89.0643 68.1523C89.0071 68.2083 88.9373 68.2333 88.8546 68.2333C88.772 68.2333 88.6958 68.2083 88.6386 68.1523C88.5814 68.0962 88.5496 68.0276 88.5496 67.9466V67.8469C88.5496 67.8157 88.5306 67.797 88.4988 67.797H87.6855C87.6537 67.797 87.641 67.8157 87.641 67.8469V67.9466C87.641 68.0339 87.6092 68.1024 87.552 68.1585ZM86.9611 68.8191C86.923 68.8191 86.9039 68.8378 86.9039 68.8752V69.2927C86.9039 69.3301 86.923 69.3488 86.9611 69.3488H87.3805C87.4186 69.3488 87.4376 69.3301 87.4376 69.2927V68.8752C87.4376 68.8378 87.4186 68.8191 87.3805 68.8191H86.9611ZM87.9396 71.1934C87.9778 71.1934 87.9968 71.1747 87.9968 71.1373V70.8818C87.9968 70.8506 87.9778 70.8319 87.9396 70.8319H87.3487C87.3106 70.8319 87.2915 70.8506 87.2915 70.8818V71.1373C87.2915 71.1747 87.3106 71.1934 87.3487 71.1934H87.9396ZM87.9396 71.9973C87.9778 71.9973 87.9968 71.9786 87.9968 71.9474V71.6857C87.9968 71.6483 87.9778 71.6296 87.9396 71.6296H87.3487C87.3106 71.6296 87.2915 71.6483 87.2915 71.6857V71.9474C87.2915 71.9786 87.3106 71.9973 87.3487 71.9973H87.9396ZM87.3487 72.4335C87.3106 72.4335 87.2915 72.4522 87.2915 72.4834V72.7513C87.2915 72.7825 87.3106 72.8012 87.3487 72.8012H87.9396C87.9778 72.8012 87.9968 72.7825 87.9968 72.7513V72.4834C87.9968 72.4522 87.9778 72.4335 87.9396 72.4335H87.3487ZM88.7657 68.8191C88.7339 68.8191 88.7149 68.8378 88.7149 68.8752V69.2927C88.7149 69.3301 88.7339 69.3488 88.7657 69.3488H89.2295C89.2677 69.3488 89.2867 69.3301 89.2867 69.2927V68.8752C89.2867 68.8378 89.2677 68.8191 89.2295 68.8191H88.7657ZM90.8054 67.7098C90.7673 67.7098 90.7482 67.7285 90.7482 67.7597V68.2769C90.7482 68.3143 90.7673 68.333 90.8054 68.333H92.1906C92.2224 68.333 92.2415 68.3143 92.2415 68.2769V67.7597C92.2415 67.7285 92.2224 67.7098 92.1906 67.7098H90.8054ZM90.8054 68.8689C90.7673 68.8689 90.7482 68.8876 90.7482 68.925V69.4485C90.7482 69.4796 90.7673 69.4983 90.8054 69.4983H92.1906C92.2224 69.4983 92.2415 69.4796 92.2415 69.4485V68.925C92.2415 68.8876 92.2224 68.8689 92.1906 68.8689H90.8054ZM90.8054 70.0467C90.7673 70.0467 90.7482 70.0654 90.7482 70.1028V70.6263C90.7482 70.6574 90.7673 70.6761 90.8054 70.6761H92.1906C92.2224 70.6761 92.2415 70.6574 92.2415 70.6263V70.1028C92.2415 70.0654 92.2224 70.0467 92.1906 70.0467H90.8054Z" fill="#769763"/>
<path d="M103.825 73.0193H104.689C104.817 73.0193 104.899 72.9632 104.937 72.8573C104.975 72.7513 105.014 72.5145 105.033 72.1593C105.039 72.0845 105.077 72.0222 105.147 71.9848C105.217 71.9474 105.287 71.9412 105.363 71.9786C105.465 72.0222 105.541 72.0908 105.604 72.178C105.655 72.2528 105.681 72.3276 105.681 72.4148C105.681 72.4273 105.681 72.446 105.681 72.4584C105.63 72.9383 105.541 73.2561 105.414 73.4244C105.287 73.5926 105.064 73.6736 104.759 73.6736H103.749C103.374 73.6736 103.126 73.6051 102.999 73.4742C102.872 73.3434 102.809 73.0941 102.809 72.7202V70.3147C102.809 70.2835 102.79 70.2648 102.751 70.2648H101.608C101.576 70.2648 101.55 70.2835 101.55 70.3147C101.519 70.6388 101.481 70.9192 101.436 71.156C101.392 71.3928 101.315 71.6421 101.22 71.8976C101.125 72.1531 101.004 72.3712 100.858 72.5644C100.712 72.7576 100.527 72.9383 100.292 73.1066C100.057 73.2748 99.784 73.4306 99.4726 73.5552C99.4218 73.5739 99.371 73.5864 99.3265 73.5864C99.282 73.5864 99.2248 73.5739 99.1803 73.5552C99.0787 73.5241 98.9961 73.4555 98.9262 73.3683C98.8944 73.3184 98.8753 73.2686 98.8753 73.2125C98.8753 73.1876 98.8753 73.1626 98.8817 73.1377C98.9071 73.0567 98.9579 72.9944 99.0405 72.9632C99.3138 72.8635 99.5489 72.7389 99.7522 72.5955C99.9555 72.4522 100.114 72.3027 100.235 72.1531C100.356 72.0035 100.458 71.8228 100.534 71.6109C100.61 71.399 100.674 71.1996 100.712 71.0064C100.75 70.8132 100.782 70.5827 100.807 70.3147C100.813 70.2835 100.794 70.2648 100.756 70.2648H99.1994C99.1041 70.2648 99.0215 70.2337 98.9579 70.1651C98.8944 70.0966 98.8563 70.0218 98.8563 69.9283C98.8563 69.8349 98.888 69.7601 98.9579 69.6915C99.0278 69.623 99.1041 69.598 99.1994 69.598H101.798C101.836 69.598 101.855 69.5793 101.855 69.542V67.1739C101.855 67.0742 101.887 66.9931 101.957 66.9246C102.027 66.856 102.11 66.8249 102.211 66.8249C102.313 66.8249 102.396 66.856 102.465 66.9246C102.535 66.9931 102.567 67.0742 102.567 67.1739V69.542C102.567 69.5793 102.586 69.598 102.624 69.598H105.28C105.376 69.598 105.458 69.6292 105.522 69.6915C105.585 69.7538 105.624 69.8349 105.624 69.9283C105.624 70.0218 105.592 70.1028 105.522 70.1651C105.452 70.2275 105.376 70.2648 105.28 70.2648H103.59C103.552 70.2648 103.533 70.2835 103.533 70.3147V72.7202C103.533 72.8448 103.552 72.9196 103.59 72.9632C103.628 73.0068 103.692 73.0193 103.825 73.0193ZM100.839 68.6383C100.852 68.6757 100.864 68.7194 100.864 68.763C100.864 68.8191 100.852 68.8689 100.826 68.9188C100.782 69.0123 100.712 69.0746 100.61 69.1182C100.572 69.1307 100.534 69.1431 100.489 69.1431C100.438 69.1431 100.388 69.1307 100.343 69.1057C100.254 69.0621 100.191 68.9936 100.159 68.9001C100.019 68.5262 99.8285 68.1211 99.5934 67.6973C99.5679 67.6537 99.5552 67.6101 99.5552 67.5665C99.5552 67.5353 99.5616 67.4979 99.5679 67.4668C99.5997 67.3858 99.6569 67.3297 99.7395 67.2985C99.7903 67.2798 99.8412 67.2673 99.8857 67.2673C99.9301 67.2673 99.9746 67.2736 100.019 67.2923C100.114 67.3234 100.191 67.3858 100.241 67.4668C100.502 67.8781 100.699 68.2707 100.839 68.6383ZM104.207 67.4543C104.251 67.3546 104.321 67.286 104.416 67.2424C104.473 67.2113 104.524 67.1988 104.581 67.1988C104.626 67.1988 104.67 67.2113 104.715 67.23C104.817 67.2611 104.886 67.3297 104.925 67.4169C104.944 67.4605 104.956 67.5042 104.956 67.5478C104.956 67.6039 104.944 67.6537 104.918 67.7036C104.67 68.1897 104.442 68.6072 104.226 68.9437C104.175 69.0185 104.105 69.0746 104.01 69.1057C103.971 69.1182 103.927 69.1182 103.882 69.1182C103.838 69.1182 103.794 69.112 103.743 69.0933C103.666 69.0621 103.609 69.006 103.577 68.925C103.565 68.8939 103.565 68.8689 103.565 68.8378C103.565 68.7879 103.577 68.7443 103.603 68.7007C103.825 68.2956 104.029 67.8843 104.207 67.4543Z" fill="#769763"/>
<path d="M113.49 70.0779C113.522 70.0717 113.547 70.0717 113.573 70.0717C113.63 70.0717 113.681 70.0841 113.732 70.1153C113.808 70.1652 113.846 70.2275 113.859 70.3147C113.865 70.3334 113.865 70.3521 113.865 70.3708C113.865 70.4394 113.846 70.5017 113.808 70.5702C113.751 70.645 113.681 70.7011 113.592 70.726L113.014 70.8943C112.975 70.9067 112.956 70.9254 112.956 70.9628V72.9196C112.956 73.1066 112.937 73.2499 112.893 73.3496C112.848 73.4493 112.772 73.5241 112.664 73.574C112.505 73.6487 112.264 73.6861 111.933 73.6986H111.927C111.832 73.6986 111.749 73.6674 111.673 73.6113C111.597 73.549 111.539 73.468 111.508 73.3683C111.482 73.2935 111.495 73.225 111.539 73.1627C111.584 73.1003 111.647 73.0692 111.724 73.0692C111.794 73.0754 111.857 73.0754 111.908 73.0754C111.997 73.0754 112.067 73.0754 112.111 73.0692C112.168 73.0692 112.2 73.0567 112.226 73.038C112.251 73.0193 112.257 72.9819 112.257 72.9196V71.1685C112.257 71.156 112.251 71.1435 112.245 71.1373C112.238 71.1311 112.219 71.1311 112.207 71.1311C112.054 71.1747 111.876 71.2246 111.679 71.2744C111.647 71.2869 111.616 71.2869 111.584 71.2869C111.527 71.2869 111.469 71.2682 111.412 71.237C111.33 71.1872 111.272 71.1186 111.247 71.0251C111.234 70.994 111.234 70.9691 111.234 70.9379C111.234 70.8818 111.253 70.8195 111.285 70.7634C111.336 70.6886 111.406 70.6325 111.501 70.6076C111.8 70.5391 112.035 70.483 112.207 70.4331C112.238 70.4207 112.257 70.402 112.257 70.3646V68.9873C112.257 68.9562 112.238 68.9375 112.207 68.9375H111.59C111.501 68.9375 111.425 68.9063 111.361 68.844C111.298 68.7817 111.266 68.7069 111.266 68.6134C111.266 68.52 111.298 68.4452 111.361 68.3891C111.425 68.333 111.501 68.2956 111.59 68.2956H112.207C112.238 68.2956 112.257 68.2769 112.257 68.2395V67.1864C112.257 67.0866 112.289 67.0056 112.359 66.9433C112.429 66.881 112.512 66.8436 112.607 66.8436C112.702 66.8436 112.785 66.8748 112.855 66.9433C112.925 67.0119 112.956 67.0929 112.956 67.1864V68.2395C112.956 68.2769 112.975 68.2956 113.014 68.2956H113.458C113.547 68.2956 113.624 68.3268 113.687 68.3891C113.751 68.4514 113.782 68.5262 113.782 68.6134C113.782 68.7007 113.751 68.7817 113.687 68.844C113.624 68.9063 113.547 68.9375 113.458 68.9375H113.014C112.975 68.9375 112.956 68.9562 112.956 68.9873V70.1714C112.956 70.1839 112.963 70.1963 112.975 70.2088C112.988 70.2212 113.001 70.2212 113.014 70.215C113.28 70.134 113.446 70.0904 113.49 70.0779ZM114.564 73.6861C114.469 73.6861 114.386 73.655 114.323 73.5864C114.259 73.5179 114.221 73.4431 114.221 73.3558V70.8133C114.221 70.6949 114.265 70.5951 114.354 70.5079C114.443 70.4207 114.545 70.377 114.666 70.377H117.404C117.525 70.377 117.627 70.4207 117.716 70.5079C117.805 70.5951 117.849 70.6949 117.849 70.8133V73.306C117.849 73.3995 117.817 73.4805 117.747 73.549C117.678 73.6176 117.595 73.6487 117.5 73.6487H117.417C117.341 73.6487 117.277 73.6238 117.226 73.5677C117.176 73.5116 117.15 73.4493 117.15 73.3808C117.15 73.3621 117.137 73.3496 117.112 73.3496H114.945C114.92 73.3496 114.907 73.3621 114.907 73.387C114.907 73.468 114.875 73.5428 114.818 73.5989C114.761 73.655 114.685 73.6861 114.602 73.6861H114.564V73.6861ZM115.485 69.2242H117.029C117.201 69.2242 117.315 69.1868 117.379 69.112C117.442 69.0372 117.487 68.8876 117.512 68.6571C117.525 68.5823 117.563 68.52 117.633 68.4826C117.703 68.4452 117.779 68.4389 117.855 68.4639C117.951 68.5013 118.027 68.5636 118.078 68.6446C118.122 68.7069 118.148 68.7755 118.148 68.8502C118.148 68.8689 118.148 68.8876 118.148 68.9063C118.091 69.2678 117.983 69.5108 117.836 69.6417C117.69 69.7726 117.436 69.8411 117.074 69.8411H115.435C114.964 69.8411 114.647 69.7788 114.481 69.6479C114.316 69.517 114.234 69.274 114.234 68.9063V67.1801C114.234 67.0866 114.265 67.0056 114.335 66.9371C114.405 66.8685 114.481 66.8374 114.583 66.8374C114.685 66.8374 114.761 66.8685 114.831 66.9371C114.901 67.0056 114.933 67.0866 114.933 67.1801V67.8345C114.933 67.8656 114.952 67.8843 114.983 67.8781C115.714 67.7161 116.337 67.5416 116.852 67.3422C116.921 67.3172 116.991 67.3048 117.061 67.3048C117.099 67.3048 117.137 67.3048 117.176 67.311C117.284 67.3297 117.379 67.3795 117.462 67.4543C117.512 67.5042 117.538 67.554 117.538 67.6163C117.538 67.635 117.538 67.6537 117.531 67.6662C117.519 67.7534 117.468 67.8095 117.385 67.8345C116.737 68.0588 115.943 68.2582 114.996 68.4327C114.964 68.4389 114.945 68.4576 114.945 68.5013V68.8939C114.945 69.0185 114.977 69.1058 115.047 69.1431C115.117 69.1805 115.257 69.2242 115.485 69.2242ZM117.144 71.0189C117.144 70.9815 117.125 70.9628 117.087 70.9628H114.958C114.926 70.9628 114.907 70.9815 114.907 71.0189V71.5362C114.907 71.5673 114.926 71.586 114.958 71.586H117.087C117.125 71.586 117.144 71.5673 117.144 71.5362V71.0189ZM114.901 72.7264C114.901 72.7638 114.92 72.7825 114.952 72.7825H117.08C117.118 72.7825 117.137 72.7638 117.137 72.7264V72.1843C117.137 72.1531 117.118 72.1344 117.08 72.1344H114.952C114.92 72.1344 114.901 72.1531 114.901 72.1843V72.7264Z" fill="#769763"/>
<path d="M130.443 67.6163C130.507 67.6787 130.539 67.7534 130.539 67.8469C130.539 67.9404 130.507 68.0152 130.443 68.0775C130.38 68.1398 130.304 68.171 130.215 68.171H127.565C127.533 68.171 127.508 68.1897 127.508 68.2271C127.482 68.4016 127.45 68.5947 127.419 68.7942C127.412 68.8253 127.431 68.844 127.463 68.844H129.763C129.89 68.844 129.992 68.8876 130.075 68.9749C130.157 69.0621 130.202 69.1618 130.202 69.2802V72.9258C130.202 73.1128 130.176 73.2624 130.119 73.3558C130.062 73.4493 129.973 73.5241 129.833 73.574C129.662 73.6425 129.331 73.6737 128.848 73.6737C128.753 73.6737 128.664 73.6487 128.588 73.5926C128.512 73.5366 128.454 73.4618 128.416 73.3683C128.385 73.2997 128.391 73.2374 128.429 73.1751C128.467 73.1128 128.524 73.0879 128.601 73.0941C128.728 73.0941 128.836 73.0941 128.937 73.0941C129.083 73.0941 129.204 73.0941 129.3 73.0879C129.363 73.0879 129.408 73.0754 129.433 73.0567C129.458 73.038 129.471 72.9944 129.471 72.9258V69.5544C129.471 69.517 129.452 69.4984 129.42 69.4984H124.998C124.966 69.4984 124.947 69.517 124.947 69.5544V73.3309C124.947 73.4306 124.915 73.5116 124.845 73.5802C124.775 73.6487 124.693 73.6799 124.597 73.6799C124.502 73.6799 124.419 73.6487 124.35 73.5802C124.28 73.5116 124.248 73.4306 124.248 73.3309V69.2865C124.248 69.1681 124.292 69.0684 124.375 68.9811C124.458 68.8939 124.566 68.8502 124.686 68.8502H126.669C126.701 68.8502 126.726 68.8315 126.726 68.8004C126.732 68.7692 126.745 68.6882 126.758 68.5511C126.771 68.414 126.79 68.3081 126.796 68.2271C126.802 68.1897 126.783 68.171 126.745 68.171H124.216C124.127 68.171 124.051 68.1398 123.987 68.0775C123.924 68.0152 123.892 67.9404 123.892 67.8469C123.892 67.7534 123.924 67.6787 123.987 67.6163C124.051 67.554 124.127 67.5229 124.216 67.5229H126.815C126.853 67.5229 126.879 67.5042 126.885 67.473C126.891 67.3858 126.898 67.2985 126.898 67.2113C126.91 67.1116 126.955 67.0243 127.031 66.9558C127.101 66.8997 127.177 66.8685 127.273 66.8685C127.285 66.8685 127.298 66.8685 127.311 66.8685C127.419 66.881 127.508 66.9246 127.571 67.0056C127.628 67.0742 127.654 67.149 127.654 67.23C127.654 67.2424 127.654 67.2611 127.654 67.2798C127.641 67.3297 127.635 67.392 127.622 67.4668C127.616 67.4979 127.635 67.5166 127.673 67.5166H130.221C130.304 67.5166 130.38 67.554 130.443 67.6163ZM129.026 71.8041C129.083 71.8602 129.109 71.9225 129.109 72.0035C129.109 72.0845 129.083 72.1469 129.026 72.203C128.969 72.259 128.906 72.284 128.829 72.284H127.578C127.546 72.284 127.527 72.3027 127.527 72.3401V73.1813C127.527 73.2748 127.495 73.3496 127.431 73.4182C127.368 73.4867 127.285 73.5116 127.19 73.5116C127.095 73.5116 127.018 73.4805 126.948 73.4182C126.879 73.3558 126.853 73.2748 126.853 73.1813V72.3401C126.853 72.3027 126.834 72.284 126.796 72.284H125.601C125.525 72.284 125.462 72.259 125.404 72.203C125.347 72.1469 125.322 72.0845 125.322 72.0035C125.322 71.9225 125.347 71.8602 125.404 71.8041C125.462 71.748 125.525 71.7231 125.601 71.7231H126.796C126.834 71.7231 126.853 71.7044 126.853 71.667V71.1373C126.853 71.1062 126.834 71.0875 126.796 71.0875H125.76C125.684 71.0875 125.614 71.0625 125.563 71.0064C125.512 70.9504 125.487 70.888 125.487 70.8133C125.487 70.7385 125.512 70.6762 125.563 70.6201C125.614 70.564 125.684 70.5391 125.76 70.5391H126.122C126.135 70.5391 126.148 70.5328 126.161 70.5204C126.173 70.5079 126.173 70.4954 126.167 70.483C126.122 70.3272 126.053 70.1527 125.957 69.9595C125.925 69.8972 125.919 69.8286 125.951 69.7663C125.983 69.704 126.027 69.6604 126.097 69.6355C126.129 69.6292 126.167 69.6292 126.192 69.6292C126.243 69.6292 126.294 69.6417 126.338 69.6604C126.415 69.6915 126.472 69.7414 126.51 69.8162C126.554 69.9034 126.599 69.9907 126.637 70.0779C126.656 70.1215 126.669 70.1652 126.669 70.2088C126.669 70.2586 126.656 70.3023 126.631 70.3459C126.586 70.4394 126.51 70.5017 126.408 70.5266C126.408 70.5391 126.408 70.5391 126.415 70.5391H127.558C127.59 70.5391 127.616 70.5204 127.635 70.4892C127.736 70.2649 127.819 70.053 127.889 69.8536C127.921 69.7663 127.972 69.6978 128.054 69.6541C128.111 69.623 128.168 69.6043 128.226 69.6043C128.251 69.6043 128.277 69.6043 128.302 69.6105C128.385 69.6292 128.448 69.6791 128.486 69.7476C128.505 69.7912 128.518 69.8349 128.518 69.8723C128.518 69.9034 128.512 69.9408 128.493 69.972C128.397 70.1839 128.321 70.3583 128.251 70.483C128.245 70.4954 128.245 70.5017 128.257 70.5141C128.27 70.5266 128.277 70.5328 128.289 70.5328H128.677C128.753 70.5328 128.823 70.5578 128.88 70.6138C128.937 70.6699 128.963 70.7322 128.963 70.807C128.963 70.8818 128.937 70.9441 128.88 71.0002C128.823 71.0563 128.759 71.0812 128.677 71.0812H127.565C127.533 71.0812 127.514 71.0999 127.514 71.1311V71.667C127.514 71.7044 127.533 71.7231 127.565 71.7231H128.817C128.899 71.7231 128.969 71.7543 129.026 71.8041Z" fill="#769763"/>
</g>
<defs>
<clipPath id="clip0_764_191">
<rect width="107.673" height="62.2868" fill="white" transform="translate(26.1635 17.7931)"/>
</clipPath>
</defs>
</svg>
