<svg width="49" height="48" viewBox="0 0 49 48" fill="none" xmlns="http://www.w3.org/2000/svg">
<path d="M46.5 16C46.5 18.2 44.7 20 42.5 20C42.14 20 41.8 19.96 41.48 19.86L34.36 26.96C34.46 27.28 34.5 27.64 34.5 28C34.5 30.2 32.7 32 30.5 32C28.3 32 26.5 30.2 26.5 28C26.5 27.64 26.54 27.28 26.64 26.96L21.54 21.86C21.22 21.96 20.86 22 20.5 22C20.14 22 19.78 21.96 19.46 21.86L10.36 30.98C10.46 31.3 10.5 31.64 10.5 32C10.5 34.2 8.7 36 6.5 36C4.3 36 2.5 34.2 2.5 32C2.5 29.8 4.3 28 6.5 28C6.86 28 7.2 28.04 7.52 28.14L16.64 19.04C16.54 18.72 16.5 18.36 16.5 18C16.5 15.8 18.3 14 20.5 14C22.7 14 24.5 15.8 24.5 18C24.5 18.36 24.46 18.72 24.36 19.04L29.46 24.14C29.78 24.04 30.14 24 30.5 24C30.86 24 31.22 24.04 31.54 24.14L38.64 17.02C38.54 16.7 38.5 16.36 38.5 16C38.5 13.8 40.3 12 42.5 12C44.7 12 46.5 13.8 46.5 16Z" fill="white"/>
</svg>
